{"title":"The Block - S12E17 - Living And Dining Week Begins","uid":15861903,"size":1259786771,"categoryP":"video","categoryS":"tv_shows","magnet":"?xt=urn:btih:da1c958eb61ba87d77d37019a365801034601099&amp;dn=The+Block+-+S12E17+-+Living+And+Dining+Week+Begins&amp;tr=udp%3A%2F%2Ftracker.leechers-paradise.org%3A6969&amp;tr=udp%3A%2F%2Fzer0day.ch%3A1337&amp;tr=udp%3A%2F%2Fopen.demonii.com%3A1337&amp;tr=udp%3A%2F%2Ftracker.coppersurfer.tk%3A6969&amp;tr=udp%3A%2F%2Fexodus.desync.com%3A6969","seeders":6,"leechers":1,"uploader":"Bullrout","files":1,"time":1474309146,"description":"The Block - S12E17 - Living And Dining Week Begins\r\n\r\nAnother big week begins when the teams get started on their living and dining rooms. Planning the perfect space is key this week and a bitter feud begins for two couples.\r\n\r\nComplete name                            : The Block - S12E17 - Living And Dining Week Begins.mkv\r\nFormat                                   : Matroska\r\nFormat version                           : Version 4 / Version 2\r\nFile size                                : 1.17 GiB\r\nDuration                                 : 50 min 33 s\r\nOverall bit rate mode                    : Variable\r\nOverall bit rate                         : 3 322 kb/s\r\nEncoded date                             : UTC 2016-09-19 15:41:30\r\nWriting application                      : mkvmerge v9.4.2 ('So High') 64bit\r\nWriting library                          : libebml v1.3.4 + libmatroska v1.4.5\r\n\r\nVideo\r\nID                                       : 2\r\nFormat                                   : AVC\r\nFormat/Info                              : Advanced Video Codec\r\nFormat profile                           :   \r\nFormat settings, CABAC                   : Yes\r\nFormat settings, ReFrames                : 3 frames\r\nCodec ID                                 : V_MPEG4/ISO/AVC\r\nDuration                                 : 50 min 33 s\r\nBit rate mode                            : Variable\r\nBit rate                                 : 2 936 kb/s\r\nMaximum bit rate                         : 3 000 kb/s\r\nWidth                                    : 1 280 pixels\r\nHeight                                   : 720 pixels\r\nDisplay aspect ratio                     : 16:9\r\nFrame rate mode                          : Constant\r\nFrame rate                               : 25.000 FPS\r\nStandard                                 : PAL\r\nColor space                              : YUV\r\nChroma subsampling                       : 4:2:0\r\nBit depth                                : 8 bits\r\nScan type                                : Progressive\r\nBits/(Pixel*Frame)                       : 0.127\r\nStream size                              : 1.04 GiB (88%)\r\nWriting library                          : x264 core 112\r\nDefault                                  : Yes\r\nForced                                   : No\r\nColor range                              : Limited\r\nColor primaries                          : BT.709\r\nTransfer characteristics                 : BT.709\r\nMatrix coefficients                      : BT.709\r\n\r\nAudio\r\nID                                       : 1\r\nFormat                                   : AC-3\r\nFormat/Info                              : Audio Coding 3\r\nMode extension                           : CM (complete main)\r\nFormat settings, Endianness              : Big\r\nCodec ID                                 : A_AC3\r\nDuration                                 : 50 min 33 s\r\nBit rate mode                            : Constant\r\nBit rate                                 : 384 kb/s\r\nChannel(s)                               : 6 channels\r\nChannel positions                        : Front: L C R, Side: L R, LFE\r\nSampling rate                            : 48.0 kHz\r\nFrame rate                               : 31.250 FPS (1536 spf)\r\nCompression mode                         : Lossy\r\nStream size                              : 139 MiB (12%)\r\nDefault                                  : Yes\r\nForced                                   : No","torrent":{"xt":"urn:btih:da1c958eb61ba87d77d37019a365801034601099","amp;dn":"The+Block+-+S12E17+-+Living+And+Dining+Week+Begins","amp;tr":["udp%3A%2F%2Ftracker.leechers-paradise.org%3A6969","udp%3A%2F%2Fzer0day.ch%3A1337","udp%3A%2F%2Fopen.demonii.com%3A1337","udp%3A%2F%2Ftracker.coppersurfer.tk%3A6969","udp%3A%2F%2Fexodus.desync.com%3A6969"],"infoHash":"da1c958eb61ba87d77d37019a365801034601099","infoHashBuffer":{"type":"Buffer","data":[218,28,149,142,182,27,168,125,119,211,112,25,163,101,128,16,52,96,16,153]},"announce":[],"urlList":[]}}